<svg xmlns="http://www.w3.org/2000/svg" xmlns:xlink="http://www.w3.org/1999/xlink" width="500" zoomAndPan="magnify" viewBox="0 0 375 374.999991" height="500" preserveAspectRatio="xMidYMid meet" version="1.0"><defs><g/><clipPath id="01f66afe9b"><path d="M 29.132812 29.132812 L 345.632812 29.132812 L 345.632812 345.632812 L 29.132812 345.632812 Z M 29.132812 29.132812 " clip-rule="nonzero"/></clipPath><clipPath id="9b5b4d6d18"><path d="M 104.234375 94.554688 L 270.734375 94.554688 L 270.734375 261.054688 L 104.234375 261.054688 Z M 104.234375 94.554688 " clip-rule="nonzero"/></clipPath></defs><g clip-path="url(#01f66afe9b)"><path fill="#00bf63" d="M 345.855469 187.496094 C 345.855469 190.085938 345.792969 192.675781 345.664062 195.265625 C 345.539062 197.851562 345.347656 200.4375 345.09375 203.015625 C 344.839844 205.597656 344.523438 208.167969 344.140625 210.730469 C 343.761719 213.292969 343.316406 215.847656 342.8125 218.390625 C 342.308594 220.929688 341.738281 223.457031 341.109375 225.972656 C 340.480469 228.488281 339.789062 230.984375 339.035156 233.464844 C 338.285156 235.945312 337.472656 238.40625 336.597656 240.84375 C 335.726562 243.285156 334.792969 245.703125 333.800781 248.097656 C 332.808594 250.492188 331.757812 252.859375 330.652344 255.203125 C 329.542969 257.546875 328.378906 259.859375 327.15625 262.144531 C 325.933594 264.429688 324.65625 266.683594 323.324219 268.910156 C 321.992188 271.132812 320.605469 273.320312 319.167969 275.476562 C 317.726562 277.628906 316.234375 279.75 314.691406 281.832031 C 313.148438 283.910156 311.554688 285.953125 309.910156 287.957031 C 308.265625 289.960938 306.574219 291.921875 304.832031 293.84375 C 303.09375 295.761719 301.304688 297.640625 299.472656 299.472656 C 297.640625 301.304688 295.761719 303.09375 293.84375 304.832031 C 291.921875 306.574219 289.960938 308.265625 287.957031 309.910156 C 285.953125 311.554688 283.910156 313.148438 281.828125 314.691406 C 279.75 316.234375 277.628906 317.726562 275.476562 319.167969 C 273.320312 320.605469 271.132812 321.992188 268.910156 323.324219 C 266.683594 324.65625 264.429688 325.933594 262.144531 327.15625 C 259.859375 328.378906 257.546875 329.542969 255.203125 330.652344 C 252.859375 331.757812 250.492188 332.808594 248.097656 333.800781 C 245.703125 334.792969 243.285156 335.726562 240.84375 336.597656 C 238.40625 337.472656 235.945312 338.285156 233.464844 339.035156 C 230.984375 339.789062 228.488281 340.480469 225.972656 341.109375 C 223.457031 341.738281 220.929688 342.308594 218.390625 342.8125 C 215.847656 343.316406 213.292969 343.761719 210.730469 344.140625 C 208.167969 344.523438 205.59375 344.839844 203.015625 345.09375 C 200.4375 345.347656 197.851562 345.539062 195.265625 345.664062 C 192.675781 345.792969 190.085938 345.855469 187.496094 345.855469 C 184.902344 345.855469 182.3125 345.792969 179.722656 345.664062 C 177.136719 345.539062 174.550781 345.347656 171.972656 345.09375 C 169.394531 344.839844 166.820312 344.523438 164.257812 344.140625 C 161.695312 343.761719 159.140625 343.316406 156.597656 342.8125 C 154.058594 342.308594 151.53125 341.738281 149.015625 341.109375 C 146.5 340.480469 144.003906 339.789062 141.523438 339.035156 C 139.042969 338.285156 136.585938 337.472656 134.144531 336.597656 C 131.703125 335.726562 129.285156 334.792969 126.890625 333.800781 C 124.496094 332.808594 122.128906 331.757812 119.785156 330.652344 C 117.441406 329.542969 115.128906 328.378906 112.84375 327.15625 C 110.558594 325.933594 108.304688 324.65625 106.082031 323.324219 C 103.855469 321.992188 101.667969 320.605469 99.511719 319.167969 C 97.359375 317.726562 95.242188 316.234375 93.160156 314.691406 C 91.078125 313.148438 89.035156 311.554688 87.03125 309.910156 C 85.027344 308.265625 83.066406 306.574219 81.144531 304.832031 C 79.226562 303.09375 77.347656 301.304688 75.515625 299.472656 C 73.683594 297.640625 71.898438 295.761719 70.15625 293.84375 C 68.414062 291.921875 66.722656 289.960938 65.078125 287.957031 C 63.433594 285.953125 61.839844 283.910156 60.296875 281.828125 C 58.753906 279.75 57.261719 277.628906 55.820312 275.476562 C 54.382812 273.320312 52.996094 271.132812 51.664062 268.910156 C 50.332031 266.683594 49.054688 264.429688 47.832031 262.144531 C 46.609375 259.859375 45.445312 257.546875 44.335938 255.203125 C 43.230469 252.859375 42.179688 250.492188 41.1875 248.097656 C 40.195312 245.703125 39.261719 243.285156 38.390625 240.84375 C 37.515625 238.40625 36.703125 235.945312 35.953125 233.464844 C 35.199219 230.984375 34.507812 228.488281 33.878906 225.972656 C 33.25 223.457031 32.679688 220.929688 32.175781 218.390625 C 31.671875 215.847656 31.226562 213.292969 30.847656 210.730469 C 30.464844 208.167969 30.148438 205.59375 29.894531 203.015625 C 29.640625 200.4375 29.449219 197.851562 29.324219 195.265625 C 29.195312 192.675781 29.132812 190.085938 29.132812 187.496094 C 29.132812 184.902344 29.195312 182.3125 29.324219 179.722656 C 29.449219 177.136719 29.640625 174.550781 29.894531 171.972656 C 30.148438 169.394531 30.464844 166.820312 30.847656 164.257812 C 31.226562 161.695312 31.671875 159.140625 32.175781 156.597656 C 32.679688 154.058594 33.25 151.53125 33.878906 149.015625 C 34.507812 146.5 35.199219 144.003906 35.953125 141.523438 C 36.703125 139.042969 37.515625 136.585938 38.390625 134.144531 C 39.261719 131.703125 40.195312 129.285156 41.1875 126.890625 C 42.179688 124.496094 43.230469 122.128906 44.335938 119.785156 C 45.445312 117.441406 46.609375 115.128906 47.832031 112.84375 C 49.054688 110.558594 50.332031 108.304688 51.664062 106.082031 C 52.996094 103.855469 54.382812 101.667969 55.820312 99.511719 C 57.261719 97.359375 58.753906 95.242188 60.296875 93.160156 C 61.839844 91.078125 63.433594 89.035156 65.078125 87.03125 C 66.722656 85.027344 68.414062 83.066406 70.15625 81.144531 C 71.898438 79.226562 73.683594 77.347656 75.515625 75.515625 C 77.347656 73.683594 79.226562 71.898438 81.144531 70.15625 C 83.066406 68.414062 85.027344 66.722656 87.03125 65.078125 C 89.035156 63.433594 91.078125 61.839844 93.160156 60.296875 C 95.242188 58.753906 97.359375 57.261719 99.511719 55.820312 C 101.667969 54.382812 103.855469 52.996094 106.082031 51.664062 C 108.304688 50.332031 110.558594 49.054688 112.84375 47.832031 C 115.128906 46.609375 117.441406 45.445312 119.785156 44.335938 C 122.128906 43.230469 124.496094 42.179688 126.890625 41.1875 C 129.285156 40.195312 131.703125 39.261719 134.144531 38.390625 C 136.585938 37.515625 139.042969 36.703125 141.523438 35.953125 C 144.003906 35.199219 146.5 34.507812 149.015625 33.878906 C 151.53125 33.25 154.058594 32.679688 156.597656 32.175781 C 159.140625 31.671875 161.695312 31.226562 164.257812 30.847656 C 166.820312 30.46875 169.394531 30.148438 171.972656 29.894531 C 174.550781 29.640625 177.136719 29.449219 179.722656 29.324219 C 182.3125 29.195312 184.902344 29.132812 187.496094 29.132812 C 190.085938 29.132812 192.675781 29.195312 195.265625 29.324219 C 197.851562 29.449219 200.4375 29.640625 203.015625 29.894531 C 205.59375 30.148438 208.167969 30.46875 210.730469 30.847656 C 213.292969 31.226562 215.847656 31.671875 218.390625 32.175781 C 220.929688 32.679688 223.457031 33.25 225.972656 33.878906 C 228.488281 34.507812 230.984375 35.199219 233.464844 35.953125 C 235.945312 36.703125 238.40625 37.515625 240.84375 38.390625 C 243.285156 39.261719 245.703125 40.195312 248.097656 41.1875 C 250.492188 42.179688 252.859375 43.230469 255.203125 44.335938 C 257.546875 45.445312 259.859375 46.609375 262.144531 47.832031 C 264.429688 49.054688 266.683594 50.332031 268.910156 51.664062 C 271.132812 52.996094 273.320312 54.382812 275.476562 55.820312 C 277.628906 57.261719 279.75 58.753906 281.828125 60.296875 C 283.910156 61.839844 285.953125 63.433594 287.957031 65.078125 C 289.960938 66.722656 291.921875 68.414062 293.84375 70.15625 C 295.761719 71.898438 297.640625 73.683594 299.472656 75.515625 C 301.304688 77.347656 303.09375 79.226562 304.832031 81.144531 C 306.574219 83.066406 308.265625 85.027344 309.910156 87.03125 C 311.554688 89.035156 313.148438 91.078125 314.691406 93.160156 C 316.234375 95.242188 317.726562 97.359375 319.167969 99.511719 C 320.605469 101.667969 321.992188 103.855469 323.324219 106.082031 C 324.65625 108.304688 325.933594 110.558594 327.15625 112.84375 C 328.378906 115.128906 329.542969 117.441406 330.652344 119.785156 C 331.757812 122.128906 332.808594 124.496094 333.800781 126.890625 C 334.792969 129.285156 335.726562 131.703125 336.597656 134.144531 C 337.472656 136.585938 338.285156 139.042969 339.035156 141.523438 C 339.789062 144.003906 340.480469 146.5 341.109375 149.015625 C 341.738281 151.53125 342.308594 154.058594 342.8125 156.597656 C 343.320312 159.140625 343.761719 161.695312 344.140625 164.257812 C 344.523438 166.820312 344.839844 169.394531 345.09375 171.972656 C 345.347656 174.550781 345.539062 177.136719 345.664062 179.722656 C 345.792969 182.3125 345.855469 184.902344 345.855469 187.496094 Z M 345.855469 187.496094 " fill-opacity="1" fill-rule="nonzero"/></g><g clip-path="url(#9b5b4d6d18)"><path fill="#ffffff" d="M 254.382812 94.554688 L 120.609375 94.554688 C 120.074219 94.558594 119.539062 94.585938 119.003906 94.640625 C 118.472656 94.695312 117.945312 94.777344 117.417969 94.882812 C 116.894531 94.988281 116.375 95.121094 115.863281 95.277344 C 115.351562 95.433594 114.847656 95.613281 114.351562 95.820312 C 113.859375 96.027344 113.375 96.257812 112.902344 96.507812 C 112.429688 96.761719 111.972656 97.039062 111.527344 97.335938 C 111.082031 97.632812 110.652344 97.953125 110.238281 98.292969 C 109.824219 98.632812 109.429688 98.992188 109.050781 99.371094 C 108.671875 99.75 108.3125 100.148438 107.972656 100.5625 C 107.628906 100.976562 107.3125 101.402344 107.015625 101.847656 C 106.714844 102.292969 106.441406 102.753906 106.1875 103.226562 C 105.933594 103.699219 105.703125 104.179688 105.496094 104.675781 C 105.292969 105.167969 105.109375 105.671875 104.953125 106.183594 C 104.796875 106.699219 104.664062 107.214844 104.558594 107.742188 C 104.453125 108.265625 104.371094 108.796875 104.320312 109.328125 C 104.265625 109.859375 104.234375 110.394531 104.234375 110.929688 L 104.234375 244.703125 C 104.234375 245.242188 104.265625 245.773438 104.320312 246.308594 C 104.371094 246.839844 104.453125 247.371094 104.558594 247.894531 C 104.664062 248.421875 104.796875 248.9375 104.953125 249.449219 C 105.109375 249.964844 105.292969 250.464844 105.496094 250.960938 C 105.703125 251.457031 105.933594 251.9375 106.1875 252.410156 C 106.441406 252.882812 106.714844 253.339844 107.015625 253.785156 C 107.3125 254.230469 107.628906 254.660156 107.972656 255.074219 C 108.3125 255.488281 108.671875 255.886719 109.050781 256.265625 C 109.429688 256.644531 109.824219 257.003906 110.238281 257.34375 C 110.652344 257.683594 111.082031 258.003906 111.527344 258.300781 C 111.972656 258.597656 112.429688 258.875 112.902344 259.128906 C 113.375 259.378906 113.859375 259.609375 114.351562 259.816406 C 114.847656 260.023438 115.351562 260.203125 115.863281 260.359375 C 116.375 260.515625 116.894531 260.648438 117.417969 260.753906 C 117.945312 260.859375 118.472656 260.941406 119.003906 260.996094 C 119.539062 261.050781 120.074219 261.078125 120.609375 261.078125 L 254.382812 261.078125 C 254.917969 261.078125 255.453125 261.050781 255.984375 260.996094 C 256.519531 260.941406 257.046875 260.859375 257.574219 260.753906 C 258.097656 260.648438 258.617188 260.515625 259.128906 260.359375 C 259.640625 260.203125 260.144531 260.023438 260.636719 259.816406 C 261.132812 259.609375 261.617188 259.378906 262.089844 259.128906 C 262.5625 258.875 263.019531 258.597656 263.464844 258.300781 C 263.910156 258.003906 264.339844 257.683594 264.753906 257.34375 C 265.167969 257.003906 265.5625 256.644531 265.941406 256.265625 C 266.320312 255.886719 266.679688 255.488281 267.019531 255.074219 C 267.359375 254.660156 267.679688 254.230469 267.976562 253.785156 C 268.277344 253.339844 268.550781 252.882812 268.804688 252.410156 C 269.058594 251.9375 269.289062 251.457031 269.492188 250.960938 C 269.699219 250.464844 269.878906 249.964844 270.039062 249.449219 C 270.195312 248.9375 270.324219 248.421875 270.433594 247.894531 C 270.539062 247.371094 270.617188 246.839844 270.671875 246.308594 C 270.726562 245.773438 270.753906 245.242188 270.757812 244.703125 L 270.757812 110.929688 C 270.753906 110.394531 270.726562 109.859375 270.671875 109.328125 C 270.617188 108.796875 270.539062 108.265625 270.433594 107.742188 C 270.324219 107.214844 270.195312 106.699219 270.039062 106.183594 C 269.878906 105.671875 269.699219 105.167969 269.492188 104.675781 C 269.289062 104.179688 269.058594 103.699219 268.804688 103.226562 C 268.550781 102.753906 268.277344 102.292969 267.976562 101.847656 C 267.679688 101.402344 267.359375 100.976562 267.019531 100.5625 C 266.679688 100.148438 266.320312 99.75 265.941406 99.371094 C 265.5625 98.992188 265.167969 98.632812 264.753906 98.292969 C 264.339844 97.953125 263.910156 97.632812 263.464844 97.335938 C 263.019531 97.039062 262.5625 96.761719 262.089844 96.507812 C 261.617188 96.257812 261.132812 96.027344 260.636719 95.820312 C 260.144531 95.613281 259.640625 95.433594 259.128906 95.277344 C 258.617188 95.121094 258.097656 94.988281 257.574219 94.882812 C 257.046875 94.777344 256.519531 94.695312 255.984375 94.640625 C 255.453125 94.585938 254.917969 94.558594 254.382812 94.554688 Z M 226.40625 172.265625 C 226.769531 172.265625 227.132812 172.304688 227.488281 172.375 C 227.847656 172.445312 228.195312 172.550781 228.53125 172.691406 C 228.867188 172.828125 229.1875 173 229.492188 173.203125 C 229.792969 173.40625 230.074219 173.636719 230.332031 173.894531 C 230.589844 174.152344 230.820312 174.429688 231.023438 174.734375 C 231.222656 175.039062 231.394531 175.355469 231.535156 175.695312 C 231.675781 176.03125 231.78125 176.378906 231.851562 176.734375 C 231.921875 177.09375 231.957031 177.453125 231.957031 177.816406 C 231.957031 178.183594 231.921875 178.542969 231.851562 178.902344 C 231.78125 179.257812 231.675781 179.605469 231.535156 179.941406 C 231.394531 180.277344 231.222656 180.597656 231.023438 180.902344 C 230.820312 181.203125 230.589844 181.484375 230.332031 181.742188 C 230.074219 182 229.792969 182.230469 229.492188 182.433594 C 229.1875 182.636719 228.867188 182.808594 228.53125 182.945312 C 228.195312 183.085938 227.847656 183.191406 227.488281 183.261719 C 227.132812 183.332031 226.769531 183.367188 226.40625 183.367188 L 137.925781 183.367188 C 138.085938 184.699219 138.304688 186.015625 138.585938 187.328125 C 138.863281 188.636719 139.203125 189.929688 139.601562 191.207031 C 140 192.488281 140.453125 193.746094 140.964844 194.980469 C 141.476562 196.21875 142.046875 197.429688 142.667969 198.613281 C 143.289062 199.800781 143.964844 200.953125 144.695312 202.078125 C 145.421875 203.203125 146.199219 204.289062 147.027344 205.34375 C 147.855469 206.394531 148.726562 207.40625 149.648438 208.378906 C 150.566406 209.351562 151.527344 210.28125 152.53125 211.167969 C 153.535156 212.054688 154.578125 212.890625 155.660156 213.679688 C 156.742188 214.472656 157.855469 215.210938 159.003906 215.898438 C 160.152344 216.585938 161.328125 217.222656 162.535156 217.804688 C 163.742188 218.386719 164.972656 218.910156 166.226562 219.378906 C 167.480469 219.847656 168.75 220.257812 170.042969 220.613281 C 171.335938 220.964844 172.640625 221.257812 173.957031 221.492188 C 175.277344 221.726562 176.601562 221.898438 177.9375 222.011719 C 179.269531 222.125 180.605469 222.179688 181.945312 222.167969 L 243.058594 222.167969 C 243.425781 222.171875 243.789062 222.207031 244.148438 222.28125 C 244.507812 222.355469 244.855469 222.460938 245.191406 222.605469 C 245.53125 222.746094 245.851562 222.917969 246.15625 223.125 C 246.457031 223.328125 246.738281 223.5625 246.996094 223.820312 C 247.253906 224.082031 247.484375 224.363281 247.6875 224.671875 C 247.886719 224.976562 248.058594 225.296875 248.199219 225.636719 C 248.335938 225.976562 248.441406 226.328125 248.511719 226.6875 C 248.578125 227.046875 248.613281 227.410156 248.613281 227.773438 C 248.609375 228.140625 248.570312 228.503906 248.5 228.863281 C 248.425781 229.222656 248.316406 229.570312 248.175781 229.910156 C 248.035156 230.246094 247.859375 230.566406 247.65625 230.871094 C 247.449219 231.175781 247.21875 231.453125 246.957031 231.710938 C 246.695312 231.96875 246.414062 232.199219 246.109375 232.402344 C 245.800781 232.605469 245.480469 232.773438 245.140625 232.914062 C 244.800781 233.050781 244.453125 233.15625 244.09375 233.222656 C 243.734375 233.292969 243.371094 233.328125 243.003906 233.324219 L 181.945312 233.324219 C 180.125 233.324219 178.3125 233.238281 176.503906 233.058594 C 174.695312 232.878906 172.898438 232.613281 171.117188 232.257812 C 169.332031 231.90625 167.570312 231.464844 165.832031 230.9375 C 164.09375 230.40625 162.382812 229.796875 160.703125 229.101562 C 159.023438 228.40625 157.382812 227.628906 155.777344 226.773438 C 154.175781 225.914062 152.617188 224.980469 151.105469 223.972656 C 149.59375 222.960938 148.136719 221.878906 146.730469 220.726562 C 145.324219 219.574219 143.980469 218.355469 142.695312 217.066406 C 141.410156 215.78125 140.191406 214.4375 139.035156 213.03125 C 137.882812 211.625 136.800781 210.167969 135.792969 208.65625 C 134.78125 207.144531 133.847656 205.585938 132.992188 203.984375 C 132.132812 202.382812 131.359375 200.738281 130.664062 199.058594 C 129.964844 197.378906 129.355469 195.671875 128.828125 193.929688 C 128.300781 192.191406 127.859375 190.429688 127.503906 188.648438 C 127.148438 186.863281 126.882812 185.066406 126.703125 183.257812 C 126.527344 181.449219 126.4375 179.636719 126.4375 177.816406 C 126.4375 176 126.527344 174.1875 126.703125 172.378906 C 126.882812 170.566406 127.148438 168.773438 127.503906 166.988281 C 127.859375 165.207031 128.300781 163.445312 128.828125 161.707031 C 129.355469 159.964844 129.964844 158.253906 130.664062 156.578125 C 131.359375 154.898438 132.132812 153.253906 132.992188 151.652344 C 133.847656 150.046875 134.78125 148.492188 135.792969 146.980469 C 136.800781 145.46875 137.882812 144.007812 139.035156 142.605469 C 140.191406 141.199219 141.410156 139.855469 142.695312 138.566406 C 143.980469 137.28125 145.324219 136.0625 146.730469 134.910156 C 148.136719 133.757812 149.59375 132.675781 151.105469 131.664062 C 152.617188 130.65625 154.175781 129.722656 155.777344 128.863281 C 157.382812 128.007812 159.023438 127.230469 160.703125 126.535156 C 162.382812 125.839844 164.09375 125.226562 165.832031 124.699219 C 167.570312 124.171875 169.332031 123.730469 171.117188 123.375 C 172.898438 123.023438 174.695312 122.753906 176.503906 122.578125 C 178.3125 122.398438 180.125 122.308594 181.945312 122.308594 L 243.28125 122.308594 C 243.644531 122.316406 244.003906 122.359375 244.359375 122.4375 C 244.714844 122.515625 245.058594 122.628906 245.390625 122.773438 C 245.722656 122.917969 246.039062 123.097656 246.335938 123.304688 C 246.632812 123.515625 246.90625 123.75 247.15625 124.015625 C 247.40625 124.277344 247.628906 124.5625 247.824219 124.871094 C 248.019531 125.179688 248.179688 125.503906 248.308594 125.84375 C 248.4375 126.183594 248.53125 126.53125 248.59375 126.890625 C 248.652344 127.246094 248.675781 127.609375 248.664062 127.972656 C 248.65625 128.335938 248.613281 128.695312 248.535156 129.050781 C 248.457031 129.40625 248.34375 129.75 248.195312 130.085938 C 248.050781 130.417969 247.871094 130.734375 247.664062 131.035156 C 247.453125 131.332031 247.21875 131.605469 246.957031 131.859375 C 246.695312 132.113281 246.410156 132.335938 246.101562 132.53125 C 245.796875 132.730469 245.472656 132.894531 245.132812 133.027344 C 244.792969 133.160156 244.445312 133.257812 244.085938 133.324219 C 243.730469 133.390625 243.367188 133.417969 243.003906 133.410156 L 181.945312 133.410156 C 180.605469 133.40625 179.269531 133.460938 177.9375 133.578125 C 176.601562 133.695312 175.277344 133.871094 173.957031 134.109375 C 172.640625 134.34375 171.335938 134.640625 170.046875 134.996094 C 168.753906 135.351562 167.480469 135.765625 166.230469 136.238281 C 164.976562 136.707031 163.746094 137.234375 162.542969 137.820312 C 161.335938 138.402344 160.160156 139.039062 159.011719 139.726562 C 157.863281 140.417969 156.75 141.160156 155.671875 141.949219 C 154.589844 142.742188 153.546875 143.582031 152.542969 144.464844 C 151.542969 145.351562 150.578125 146.28125 149.660156 147.257812 C 148.742188 148.230469 147.867188 149.242188 147.039062 150.296875 C 146.214844 151.347656 145.4375 152.4375 144.707031 153.558594 C 143.980469 154.683594 143.304688 155.839844 142.679688 157.023438 C 142.058594 158.207031 141.488281 159.417969 140.976562 160.65625 C 140.464844 161.894531 140.007812 163.152344 139.609375 164.429688 C 139.210938 165.707031 138.871094 167 138.589844 168.308594 C 138.308594 169.617188 138.089844 170.9375 137.925781 172.265625 Z M 226.40625 172.265625 " fill-opacity="1" fill-rule="nonzero"/></g><g fill="#ffffff" fill-opacity="1"><g transform="translate(127.807086, 293.17337)"><g><path d="M 0.390625 0 L 14.792969 0 L 15.101562 -1.898438 L 2.808594 -1.898438 L 3.847656 -8.550781 L 14.867188 -8.550781 L 15.15625 -10.371094 L 4.132812 -10.371094 L 5.09375 -16.429688 L 17.15625 -16.429688 L 17.441406 -18.328125 L 3.300781 -18.328125 Z M 0.390625 0 "/></g></g></g><g fill="#ffffff" fill-opacity="1"><g transform="translate(148.992112, 293.17337)"><g><path d="M -0.726562 5.457031 L 1.246094 5.457031 L 2.574219 -2.625 L 2.597656 -2.625 C 3.25 -0.753906 5.382812 0.46875 8.214844 0.46875 C 13.023438 0.46875 16.765625 -3.144531 16.765625 -7.851562 C 16.765625 -11.386719 14.191406 -13.59375 10.164062 -13.59375 C 7.433594 -13.59375 4.964844 -12.425781 3.742188 -10.554688 L 3.691406 -10.554688 L 3.925781 -13.128906 L 2.210938 -13.128906 Z M 7.953125 -1.324219 C 4.859375 -1.324219 2.988281 -2.9375 2.988281 -5.433594 C 2.988281 -8.917969 6.003906 -11.777344 9.800781 -11.777344 C 12.894531 -11.777344 14.765625 -10.191406 14.765625 -7.640625 C 14.765625 -4.082031 11.800781 -1.324219 7.953125 -1.324219 Z M 7.953125 -1.324219 "/></g></g></g><g fill="#ffffff" fill-opacity="1"><g transform="translate(171.216835, 293.17337)"><g><path d="M 7.253906 0.46875 C 10.890625 0.46875 13.777344 -1.066406 13.777344 -3.847656 C 13.777344 -5.613281 12.398438 -6.628906 9.203125 -7.253906 L 7.019531 -7.746094 C 4.992188 -8.1875 4.105469 -8.734375 4.105469 -9.671875 C 4.105469 -11.152344 5.953125 -11.878906 7.796875 -11.878906 C 10.035156 -11.878906 11.542969 -10.890625 12.035156 -9.304688 L 13.726562 -9.980469 C 13.101562 -12.113281 10.96875 -13.59375 7.902344 -13.59375 C 4.859375 -13.59375 2.105469 -12.113281 2.105469 -9.4375 C 2.105469 -7.640625 3.429688 -6.628906 6.289062 -6.082031 L 8.5 -5.5625 C 10.867188 -5.09375 11.855469 -4.550781 11.855469 -3.640625 C 11.855469 -2.078125 9.75 -1.300781 7.332031 -1.300781 C 4.183594 -1.300781 2.132812 -2.675781 2.078125 -4.757812 L 0.207031 -4.210938 C 0.339844 -1.507812 3.222656 0.46875 7.253906 0.46875 Z M 7.253906 0.46875 "/></g></g></g><g fill="#ffffff" fill-opacity="1"><g transform="translate(190.79035, 293.17337)"><g><path d="M 3.953125 -15.675781 C 4.886719 -15.675781 5.535156 -16.324219 5.535156 -17.285156 C 5.535156 -18.039062 5.015625 -18.558594 4.183594 -18.558594 C 3.273438 -18.558594 2.625 -17.910156 2.625 -16.949219 C 2.625 -16.195312 3.144531 -15.675781 3.953125 -15.675781 Z M 0.363281 0 L 2.367188 0 L 4.445312 -13.128906 L 2.445312 -13.128906 Z M 0.363281 0 "/></g></g></g><g fill="#ffffff" fill-opacity="1"><g transform="translate(200.382856, 293.17337)"><g><path d="M 0.128906 0 L 2.105469 0 L 5.121094 -19.105469 L 3.144531 -19.105469 Z M 0.128906 0 "/></g></g></g><g fill="#ffffff" fill-opacity="1"><g transform="translate(209.455514, 293.17337)"><g><path d="M 7.617188 0.46875 C 12.632812 0.46875 16.480469 -2.964844 16.480469 -7.796875 C 16.480469 -11.332031 13.882812 -13.59375 9.59375 -13.59375 C 4.550781 -13.59375 0.675781 -10.164062 0.675781 -5.304688 C 0.675781 -1.742188 3.328125 0.46875 7.617188 0.46875 Z M 7.773438 -1.324219 C 4.523438 -1.324219 2.675781 -2.886719 2.675781 -5.457031 C 2.675781 -9.019531 5.613281 -11.828125 9.410156 -11.828125 C 12.660156 -11.828125 14.53125 -10.269531 14.53125 -7.667969 C 14.53125 -4.105469 11.59375 -1.324219 7.773438 -1.324219 Z M 7.773438 -1.324219 "/></g></g></g><g fill="#ffffff" fill-opacity="1"><g transform="translate(231.420306, 293.17337)"><g><path d="M 9.980469 -13.570312 C 7.382812 -13.570312 5.09375 -12.554688 3.820312 -10.734375 L 3.796875 -10.734375 L 4.003906 -13.128906 L 2.210938 -13.128906 L 0.128906 0 L 2.105469 0 L 3.171875 -6.8125 C 3.691406 -9.878906 6.082031 -11.800781 9.460938 -11.800781 C 12.0625 -11.800781 13.363281 -10.449219 12.945312 -7.980469 L 11.699219 0 L 13.699219 0 L 14.945312 -8.03125 C 15.519531 -11.488281 13.648438 -13.570312 9.980469 -13.570312 Z M 9.980469 -13.570312 "/></g></g></g></svg>