<svg xmlns="http://www.w3.org/2000/svg" xmlns:xlink="http://www.w3.org/1999/xlink" width="500" zoomAndPan="magnify" viewBox="0 0 375 374.999991" height="500" preserveAspectRatio="xMidYMid meet" version="1.0"><defs><clipPath id="3098bd3f12"><path d="M 63.304688 63.304688 L 311.554688 63.304688 L 311.554688 311.554688 L 63.304688 311.554688 Z M 63.304688 63.304688 " clip-rule="nonzero"/></clipPath></defs><g clip-path="url(#3098bd3f12)"><path fill="#ffffff" d="M 287.261719 63.304688 L 87.730469 63.304688 C 86.929688 63.308594 86.132812 63.351562 85.339844 63.433594 C 84.542969 63.515625 83.753906 63.632812 82.972656 63.792969 C 82.1875 63.949219 81.414062 64.144531 80.652344 64.378906 C 79.886719 64.613281 79.136719 64.882812 78.398438 65.191406 C 77.660156 65.5 76.941406 65.839844 76.238281 66.21875 C 75.53125 66.597656 74.847656 67.007812 74.183594 67.453125 C 73.519531 67.898438 72.878906 68.375 72.261719 68.878906 C 71.644531 69.386719 71.054688 69.921875 70.488281 70.488281 C 69.921875 71.054688 69.386719 71.644531 68.878906 72.261719 C 68.375 72.878906 67.898438 73.519531 67.453125 74.183594 C 67.007812 74.847656 66.597656 75.53125 66.21875 76.238281 C 65.839844 76.941406 65.5 77.660156 65.191406 78.398438 C 64.882812 79.136719 64.613281 79.886719 64.378906 80.652344 C 64.144531 81.414062 63.949219 82.1875 63.792969 82.972656 C 63.632812 83.753906 63.515625 84.542969 63.433594 85.339844 C 63.351562 86.132812 63.308594 86.929688 63.304688 87.730469 L 63.304688 287.261719 C 63.308594 288.058594 63.351562 288.855469 63.433594 289.652344 C 63.515625 290.445312 63.632812 291.234375 63.792969 292.019531 C 63.949219 292.800781 64.144531 293.578125 64.378906 294.339844 C 64.613281 295.105469 64.882812 295.855469 65.191406 296.59375 C 65.5 297.332031 65.839844 298.050781 66.21875 298.753906 C 66.597656 299.460938 67.007812 300.144531 67.453125 300.808594 C 67.898438 301.472656 68.375 302.113281 68.878906 302.730469 C 69.386719 303.347656 69.921875 303.9375 70.488281 304.503906 C 71.054688 305.066406 71.644531 305.605469 72.261719 306.113281 C 72.878906 306.617188 73.519531 307.09375 74.183594 307.539062 C 74.847656 307.984375 75.53125 308.394531 76.238281 308.773438 C 76.941406 309.148438 77.660156 309.492188 78.398438 309.800781 C 79.136719 310.105469 79.886719 310.378906 80.652344 310.613281 C 81.414062 310.84375 82.1875 311.042969 82.972656 311.199219 C 83.753906 311.359375 84.542969 311.476562 85.339844 311.558594 C 86.132812 311.640625 86.929688 311.683594 87.730469 311.683594 L 287.261719 311.683594 C 288.058594 311.683594 288.855469 311.640625 289.652344 311.558594 C 290.445312 311.476562 291.234375 311.359375 292.019531 311.199219 C 292.800781 311.042969 293.578125 310.84375 294.339844 310.613281 C 295.105469 310.378906 295.855469 310.105469 296.59375 309.800781 C 297.332031 309.492188 298.050781 309.148438 298.753906 308.773438 C 299.460938 308.394531 300.144531 307.984375 300.808594 307.539062 C 301.472656 307.09375 302.113281 306.617188 302.730469 306.113281 C 303.347656 305.605469 303.9375 305.066406 304.503906 304.503906 C 305.066406 303.9375 305.605469 303.347656 306.113281 302.730469 C 306.617188 302.113281 307.09375 301.472656 307.539062 300.808594 C 307.984375 300.144531 308.394531 299.460938 308.773438 298.753906 C 309.148438 298.050781 309.492188 297.332031 309.800781 296.59375 C 310.105469 295.855469 310.378906 295.105469 310.613281 294.339844 C 310.84375 293.578125 311.042969 292.800781 311.199219 292.019531 C 311.359375 291.234375 311.476562 290.445312 311.558594 289.652344 C 311.640625 288.855469 311.683594 288.058594 311.683594 287.261719 L 311.683594 87.730469 C 311.683594 86.929688 311.640625 86.132812 311.558594 85.339844 C 311.476562 84.542969 311.359375 83.753906 311.199219 82.972656 C 311.042969 82.1875 310.84375 81.414062 310.613281 80.652344 C 310.378906 79.886719 310.105469 79.136719 309.800781 78.398438 C 309.492188 77.660156 309.148438 76.941406 308.773438 76.238281 C 308.394531 75.53125 307.984375 74.847656 307.539062 74.183594 C 307.09375 73.519531 306.617188 72.878906 306.113281 72.261719 C 305.605469 71.644531 305.066406 71.054688 304.503906 70.488281 C 303.9375 69.921875 303.347656 69.386719 302.730469 68.878906 C 302.113281 68.375 301.472656 67.898438 300.808594 67.453125 C 300.144531 67.007812 299.460938 66.597656 298.753906 66.21875 C 298.050781 65.839844 297.332031 65.5 296.59375 65.191406 C 295.855469 64.882812 295.105469 64.613281 294.339844 64.378906 C 293.578125 64.144531 292.800781 63.949219 292.019531 63.792969 C 291.234375 63.632812 290.445312 63.515625 289.652344 63.433594 C 288.855469 63.351562 288.058594 63.308594 287.261719 63.304688 Z M 245.535156 179.214844 C 246.078125 179.214844 246.617188 179.269531 247.148438 179.375 C 247.683594 179.480469 248.199219 179.640625 248.703125 179.847656 C 249.203125 180.054688 249.679688 180.308594 250.132812 180.613281 C 250.585938 180.914062 251.003906 181.257812 251.386719 181.640625 C 251.773438 182.027344 252.117188 182.445312 252.417969 182.894531 C 252.71875 183.347656 252.976562 183.824219 253.183594 184.328125 C 253.390625 184.828125 253.546875 185.347656 253.652344 185.878906 C 253.761719 186.414062 253.8125 186.953125 253.8125 187.496094 C 253.8125 188.039062 253.761719 188.578125 253.652344 189.109375 C 253.546875 189.644531 253.390625 190.160156 253.183594 190.664062 C 252.976562 191.167969 252.71875 191.644531 252.417969 192.09375 C 252.117188 192.546875 251.773438 192.964844 251.386719 193.351562 C 251.003906 193.734375 250.585938 194.078125 250.132812 194.378906 C 249.679688 194.683594 249.203125 194.9375 248.703125 195.144531 C 248.199219 195.351562 247.683594 195.511719 247.148438 195.617188 C 246.617188 195.722656 246.078125 195.773438 245.535156 195.773438 L 113.5625 195.773438 C 113.800781 197.757812 114.125 199.726562 114.542969 201.679688 C 114.960938 203.632812 115.464844 205.5625 116.058594 207.46875 C 116.652344 209.375 117.328125 211.25 118.09375 213.097656 C 118.859375 214.941406 119.703125 216.746094 120.632812 218.515625 C 121.5625 220.28125 122.570312 222.003906 123.65625 223.679688 C 124.742188 225.355469 125.898438 226.980469 127.132812 228.550781 C 128.367188 230.121094 129.671875 231.628906 131.042969 233.082031 C 132.414062 234.53125 133.847656 235.917969 135.347656 237.238281 C 136.84375 238.558594 138.398438 239.808594 140.011719 240.988281 C 141.625 242.164062 143.285156 243.269531 145 244.296875 C 146.710938 245.324219 148.464844 246.269531 150.265625 247.136719 C 152.0625 248.003906 153.898438 248.785156 155.769531 249.488281 C 157.640625 250.1875 159.539062 250.800781 161.464844 251.324219 C 163.390625 251.851562 165.335938 252.289062 167.304688 252.636719 C 169.269531 252.988281 171.246094 253.246094 173.238281 253.414062 C 175.226562 253.582031 177.21875 253.660156 179.214844 253.648438 L 270.371094 253.648438 C 270.917969 253.648438 271.460938 253.707031 271.996094 253.816406 C 272.53125 253.925781 273.050781 254.085938 273.554688 254.296875 C 274.058594 254.507812 274.535156 254.765625 274.988281 255.070312 C 275.441406 255.378906 275.859375 255.722656 276.246094 256.113281 C 276.628906 256.5 276.972656 256.921875 277.273438 257.378906 C 277.574219 257.835938 277.828125 258.316406 278.035156 258.820312 C 278.242188 259.328125 278.398438 259.847656 278.5 260.386719 C 278.605469 260.921875 278.65625 261.464844 278.652344 262.007812 C 278.652344 262.554688 278.59375 263.097656 278.484375 263.632812 C 278.375 264.167969 278.214844 264.6875 278.003906 265.191406 C 277.792969 265.695312 277.535156 266.171875 277.226562 266.625 C 276.921875 267.078125 276.574219 267.496094 276.1875 267.882812 C 275.796875 268.265625 275.375 268.609375 274.921875 268.910156 C 274.464844 269.210938 273.984375 269.464844 273.476562 269.671875 C 272.972656 269.878906 272.449219 270.035156 271.914062 270.136719 C 271.375 270.242188 270.835938 270.292969 270.289062 270.289062 L 179.214844 270.289062 C 177.863281 270.289062 176.507812 270.253906 175.152344 270.1875 C 173.800781 270.121094 172.449219 270.023438 171.101562 269.890625 C 169.753906 269.757812 168.410156 269.589844 167.066406 269.394531 C 165.726562 269.195312 164.394531 268.960938 163.066406 268.699219 C 161.734375 268.433594 160.414062 268.136719 159.097656 267.808594 C 157.785156 267.476562 156.480469 267.117188 155.183594 266.722656 C 153.886719 266.332031 152.601562 265.90625 151.324219 265.449219 C 150.046875 264.992188 148.785156 264.503906 147.53125 263.988281 C 146.28125 263.46875 145.042969 262.917969 143.816406 262.339844 C 142.59375 261.761719 141.382812 261.152344 140.1875 260.511719 C 138.992188 259.875 137.816406 259.207031 136.652344 258.507812 C 135.492188 257.8125 134.347656 257.089844 133.21875 256.335938 C 132.09375 255.582031 130.984375 254.804688 129.898438 253.996094 C 128.808594 253.1875 127.742188 252.355469 126.691406 251.496094 C 125.644531 250.636719 124.621094 249.75 123.617188 248.839844 C 122.613281 247.929688 121.632812 246.996094 120.671875 246.039062 C 119.714844 245.082031 118.78125 244.101562 117.871094 243.097656 C 116.960938 242.09375 116.078125 241.066406 115.214844 240.019531 C 114.355469 238.972656 113.523438 237.902344 112.714844 236.816406 C 111.910156 235.726562 111.128906 234.621094 110.375 233.492188 C 109.625 232.367188 108.898438 231.222656 108.203125 230.058594 C 107.507812 228.898438 106.839844 227.71875 106.199219 226.523438 C 105.5625 225.328125 104.953125 224.121094 104.371094 222.894531 C 103.792969 221.667969 103.246094 220.429688 102.726562 219.179688 C 102.207031 217.925781 101.71875 216.664062 101.261719 215.386719 C 100.808594 214.113281 100.382812 212.824219 99.988281 211.53125 C 99.59375 210.234375 99.234375 208.925781 98.90625 207.613281 C 98.574219 206.296875 98.277344 204.976562 98.015625 203.648438 C 97.75 202.320312 97.519531 200.984375 97.320312 199.644531 C 97.121094 198.304688 96.957031 196.960938 96.824219 195.609375 C 96.691406 194.261719 96.589844 192.910156 96.523438 191.558594 C 96.457031 190.203125 96.421875 188.851562 96.421875 187.496094 C 96.421875 186.140625 96.457031 184.785156 96.523438 183.433594 C 96.589844 182.082031 96.691406 180.730469 96.824219 179.378906 C 96.957031 178.03125 97.121094 176.6875 97.320312 175.347656 C 97.519531 174.007812 97.75 172.671875 98.015625 171.34375 C 98.277344 170.015625 98.574219 168.691406 98.90625 167.378906 C 99.234375 166.066406 99.59375 164.757812 99.988281 163.460938 C 100.382812 162.164062 100.808594 160.878906 101.261719 159.605469 C 101.71875 158.328125 102.207031 157.0625 102.726562 155.8125 C 103.246094 154.5625 103.792969 153.320312 104.371094 152.097656 C 104.953125 150.871094 105.5625 149.664062 106.199219 148.46875 C 106.839844 147.273438 107.507812 146.09375 108.203125 144.933594 C 108.898438 143.769531 109.625 142.625 110.375 141.5 C 111.128906 140.371094 111.910156 139.265625 112.714844 138.175781 C 113.523438 137.085938 114.355469 136.019531 115.214844 134.972656 C 116.078125 133.925781 116.960938 132.898438 117.871094 131.894531 C 118.78125 130.890625 119.714844 129.910156 120.671875 128.953125 C 121.632812 127.996094 122.613281 127.058594 123.617188 126.148438 C 124.621094 125.242188 125.644531 124.355469 126.691406 123.496094 C 127.742188 122.636719 128.808594 121.804688 129.898438 120.996094 C 130.984375 120.1875 132.09375 119.410156 133.21875 118.65625 C 134.347656 117.902344 135.492188 117.179688 136.652344 116.480469 C 137.816406 115.785156 138.992188 115.117188 140.1875 114.480469 C 141.382812 113.839844 142.59375 113.230469 143.816406 112.652344 C 145.042969 112.074219 146.28125 111.523438 147.53125 111.003906 C 148.785156 110.488281 150.046875 110 151.324219 109.542969 C 152.601562 109.085938 153.886719 108.660156 155.183594 108.269531 C 156.480469 107.875 157.785156 107.511719 159.097656 107.183594 C 160.414062 106.855469 161.734375 106.558594 163.066406 106.292969 C 164.394531 106.03125 165.726562 105.796875 167.066406 105.597656 C 168.410156 105.398438 169.753906 105.234375 171.101562 105.101562 C 172.449219 104.96875 173.800781 104.871094 175.152344 104.800781 C 176.507812 104.734375 177.863281 104.703125 179.214844 104.703125 L 270.703125 104.703125 C 271.246094 104.710938 271.78125 104.777344 272.308594 104.890625 C 272.839844 105.007812 273.351562 105.175781 273.847656 105.394531 C 274.34375 105.613281 274.816406 105.875 275.257812 106.1875 C 275.703125 106.5 276.109375 106.851562 276.484375 107.246094 C 276.859375 107.636719 277.191406 108.0625 277.480469 108.523438 C 277.769531 108.980469 278.007812 109.464844 278.203125 109.972656 C 278.394531 110.476562 278.535156 111 278.625 111.53125 C 278.714844 112.066406 278.75 112.605469 278.734375 113.148438 C 278.722656 113.691406 278.65625 114.226562 278.539062 114.757812 C 278.421875 115.289062 278.253906 115.800781 278.035156 116.300781 C 277.816406 116.796875 277.550781 117.269531 277.238281 117.714844 C 276.929688 118.160156 276.578125 118.570312 276.183594 118.945312 C 275.792969 119.324219 275.367188 119.65625 274.910156 119.949219 C 274.453125 120.242188 273.972656 120.488281 273.464844 120.6875 C 272.960938 120.886719 272.441406 121.035156 271.90625 121.128906 C 271.371094 121.226562 270.832031 121.269531 270.289062 121.261719 L 179.214844 121.261719 C 177.21875 121.253906 175.226562 121.335938 173.238281 121.511719 C 171.246094 121.683594 169.269531 121.945312 167.304688 122.300781 C 165.339844 122.652344 163.394531 123.097656 161.46875 123.625 C 159.542969 124.15625 157.644531 124.773438 155.777344 125.476562 C 153.90625 126.179688 152.074219 126.964844 150.273438 127.835938 C 148.476562 128.703125 146.722656 129.652344 145.011719 130.683594 C 143.300781 131.710938 141.636719 132.816406 140.027344 133.996094 C 138.417969 135.175781 136.863281 136.429688 135.363281 137.75 C 133.867188 139.070312 132.433594 140.457031 131.0625 141.910156 C 129.691406 143.363281 128.390625 144.875 127.15625 146.445312 C 125.921875 148.015625 124.761719 149.636719 123.675781 151.3125 C 122.589844 152.992188 121.582031 154.710938 120.652344 156.480469 C 119.722656 158.246094 118.875 160.054688 118.109375 161.898438 C 117.34375 163.742188 116.664062 165.617188 116.070312 167.523438 C 115.476562 169.429688 114.96875 171.359375 114.550781 173.3125 C 114.132812 175.265625 113.800781 177.234375 113.5625 179.214844 Z M 245.535156 179.214844 " fill-opacity="1" fill-rule="nonzero"/></g></svg>